<?xml version="1.0" standalone="no"?><!DOCTYPE svg PUBLIC "-//W3C//DTD SVG 1.1//EN" "http://www.w3.org/Graphics/SVG/1.1/DTD/svg11.dtd"><svg t="1727624169229" class="icon" viewBox="0 0 1024 1024" version="1.1" xmlns="http://www.w3.org/2000/svg" p-id="5484" xmlns:xlink="http://www.w3.org/1999/xlink" width="200" height="200"><path d="M784.384 992.256c-6.656 0-13.824-1.536-19.968-5.12l-261.12-143.872-266.752 133.632c-14.336 7.168-30.72 5.632-43.52-4.096-12.8-9.728-18.432-25.088-15.872-40.96l56.32-292.864L24.576 426.496c-11.264-11.264-14.848-27.648-9.728-42.496 5.12-14.848 18.432-25.6 33.792-27.648l295.936-36.864 137.216-264.704c7.168-13.824 21.504-22.528 37.376-22.528 15.872 0.512 29.696 9.216 36.864 23.552l126.464 269.824 294.4 48.64c15.872 2.56 28.16 13.824 32.768 28.672 4.608 15.36 0.512 31.232-11.264 41.984l-217.6 203.776 44.544 294.912c2.56 15.872-4.096 31.232-17.408 39.936-7.168 6.144-15.36 8.704-23.552 8.704z m-539.648-47.616z m-38.4-29.184s-0.512 0 0 0z m297.472-143.872c7.168 0 13.824 1.536 19.968 5.12l225.792 124.416-38.4-254.976c-2.048-13.824 2.56-27.136 12.288-36.352l188.416-176.128-254.464-41.984c-13.824-2.56-25.088-11.264-30.72-23.552L517.12 134.656 398.848 363.52c-6.144 12.288-17.92 20.48-31.232 22.016l-256 31.744 181.248 183.808c9.728 9.728 13.824 23.552 11.264 36.864L255.488 890.88l230.4-115.2c5.12-2.56 11.776-4.096 17.92-4.096z m12.288 65.024c0 0.512 0 0 0 0z m-25.088 0z m-247.296-187.392z m444.928-310.272z m-350.208-6.656c-0.512 0-0.512 0 0 0z" p-id="5485" fill="#FE2C55"></path></svg>