<svg xmlns:xlink="http://www.w3.org/1999/xlink" xmlns="http://www.w3.org/2000/svg" version="1.1" viewBox="0 0 1024 1024" height="1024px" width="1024px">
    <title>暂无数据</title>
    <defs>
        <linearGradient id="linearGradient-1" y2="-41.4766816%" x2="50%" y1="100%" x1="50%">
            <stop offset="0%" stop-opacity="0" stop-color="#FFDC4D"></stop>
            <stop offset="100%" stop-color="#F4B538"></stop>
        </linearGradient>
        <linearGradient id="linearGradient-2" y2="-41.4766816%" x2="50%" y1="100%" x1="50%">
            <stop offset="0%" stop-opacity="0" stop-color="#FFDC4D"></stop>
            <stop offset="100%" stop-color="#F4B538"></stop>
        </linearGradient>
        <linearGradient id="linearGradient-3" y2="110.682892%" x2="0%" y1="30.0216559%" x1="89.4431057%">
            <stop offset="0%" stop-color="#F1BC01"></stop>
            <stop offset="100%" stop-color="#FFDC4D"></stop>
        </linearGradient>
        <linearGradient id="linearGradient-4" y2="50%" x2="109.938607%" y1="66.1718562%" x1="-14.7642208%">
            <stop offset="0%" stop-color="#FFDC4D"></stop>
            <stop offset="100%" stop-color="#F1BC01"></stop>
        </linearGradient>
        <linearGradient id="linearGradient-5" y2="66.3457938%" x2="0%" y1="44.6185509%" x1="89.4431057%">
            <stop offset="0%" stop-color="#F1BC01"></stop>
            <stop offset="100%" stop-color="#FFDC4D"></stop>
        </linearGradient>
        <linearGradient id="linearGradient-6" y2="50%" x2="109.938607%" y1="66.1747683%" x1="-14.7642208%">
            <stop offset="0%" stop-color="#FFDC4D"></stop>
            <stop offset="100%" stop-color="#F1BC01"></stop>
        </linearGradient>
        <linearGradient id="linearGradient-7" y2="66.334949%" x2="0%" y1="44.6221212%" x1="89.4431057%">
            <stop offset="0%" stop-color="#F1BC01"></stop>
            <stop offset="100%" stop-color="#FFDC4D"></stop>
        </linearGradient>
        <linearGradient id="linearGradient-8" y2="55.4981983%" x2="0%" y1="48.1898539%" x1="89.4431057%">
            <stop offset="0%" stop-color="#F1BC01"></stop>
            <stop offset="100%" stop-color="#FFDC4D"></stop>
        </linearGradient>
        <linearGradient id="linearGradient-9" y2="48.0384589%" x2="66.6107357%" y1="51.1695502%" x1="-52.2886738%">
            <stop offset="0%" stop-color="#FFDC4D"></stop>
            <stop offset="100%" stop-color="#F1BC01"></stop>
        </linearGradient>
        <linearGradient id="linearGradient-10" y2="50%" x2="135.17264%" y1="50%" x1="0%">
            <stop offset="0%" stop-color="#FFDC4D"></stop>
            <stop offset="100%" stop-color="#F1BC01"></stop>
        </linearGradient>
        <linearGradient id="linearGradient-11" y2="50%" x2="135.17264%" y1="50%" x1="0%">
            <stop offset="0%" stop-color="#FFDC4D"></stop>
            <stop offset="100%" stop-color="#F1BC01"></stop>
        </linearGradient>
        <linearGradient id="linearGradient-12" y2="52.0382178%" x2="74.4962028%" y1="50%" x1="0%">
            <stop offset="0%" stop-color="#FFDC4D"></stop>
            <stop offset="100%" stop-color="#F1BC01"></stop>
        </linearGradient>
        <linearGradient id="linearGradient-13" y2="84.5237757%" x2="59.9138483%" y1="26.3794504%" x1="36.901027%">
            <stop offset="0%" stop-color="#FFDC4D"></stop>
            <stop offset="100%" stop-color="#F1BC01"></stop>
        </linearGradient>
        <linearGradient id="linearGradient-14" y2="48.2661233%" x2="59.1135513%" y1="56.8979592%" x1="-41.9489674%">
            <stop offset="0%" stop-color="#FFDC4D"></stop>
            <stop offset="100%" stop-color="#F1BC01"></stop>
        </linearGradient>
        <linearGradient id="linearGradient-15" y2="100%" x2="126.249279%" y1="100%" x1="0%">
            <stop offset="0%" stop-color="#FFDC4D"></stop>
            <stop offset="100%" stop-color="#F1BC01"></stop>
        </linearGradient>
        <linearGradient id="linearGradient-16" y2="-2.80504909%" x2="-2.70574742e-12%" y1="-2.80504909%" x1="86.2750219%">
            <stop offset="0%" stop-color="#1D181C"></stop>
            <stop offset="30%" stop-color="#2C2422"></stop>
            <stop offset="50%" stop-color="#42352C"></stop>
            <stop offset="70%" stop-color="#57352C"></stop>
            <stop offset="100%" stop-color="#923629"></stop>
        </linearGradient>
        <linearGradient id="linearGradient-17" y2="100%" x2="50%" y1="12.9243097%" x1="50%">
            <stop offset="0%" stop-color="#FFCDA5"></stop>
            <stop offset="100%" stop-color="#FFE8D1"></stop>
        </linearGradient>
        <linearGradient id="linearGradient-18" y2="100%" x2="93.2286857%" y1="0%" x1="41.4196394%">
            <stop offset="0%" stop-color="#FFF2DF"></stop>
            <stop offset="100%" stop-color="#FEE0BC"></stop>
        </linearGradient>
        <linearGradient id="linearGradient-19" y2="-10.2228403%" x2="83.4054344%" y1="118.402056%" x1="35.8054951%">
            <stop offset="0%" stop-color="#41B093"></stop>
            <stop offset="100%" stop-color="#184657"></stop>
        </linearGradient>
        <linearGradient id="linearGradient-20" y2="50%" x2="71.0382773%" y1="79.3761836%" x1="32.3729352%">
            <stop offset="0%" stop-color="#41B093"></stop>
            <stop offset="100%" stop-color="#184657"></stop>
        </linearGradient>
        <linearGradient id="linearGradient-21" y2="-10.2228403%" x2="88.6380407%" y1="118.402056%" x1="33.5820767%">
            <stop offset="0%" stop-color="#41B093"></stop>
            <stop offset="100%" stop-color="#184657"></stop>
        </linearGradient>
        <linearGradient id="linearGradient-22" y2="99.7159694%" x2="99.2363281%" y1="99.7159694%" x1="45.2511623%">
            <stop offset="0%" stop-color="#FFDC4D"></stop>
            <stop offset="100%" stop-color="#F4B538"></stop>
        </linearGradient>
        <linearGradient id="linearGradient-23" y2="99.7159694%" x2="99.2363281%" y1="99.7159694%" x1="45.2511623%">
            <stop offset="0%" stop-color="#FFDC4D"></stop>
            <stop offset="100%" stop-color="#F4B538"></stop>
        </linearGradient>
        <linearGradient id="linearGradient-24" y2="99.7159694%" x2="99.2363281%" y1="99.7159694%" x1="45.2511623%">
            <stop offset="0%" stop-color="#FFDC4D"></stop>
            <stop offset="100%" stop-color="#F4B538"></stop>
        </linearGradient>
        <linearGradient id="linearGradient-25" y2="99.7159694%" x2="99.2363281%" y1="99.7159694%" x1="45.2511623%">
            <stop offset="0%" stop-color="#FFDC4D"></stop>
            <stop offset="100%" stop-color="#F4B538"></stop>
        </linearGradient>
        <linearGradient id="linearGradient-26" y2="99.7159694%" x2="99.2363281%" y1="99.7159694%" x1="45.2511623%">
            <stop offset="0%" stop-color="#FFDC4D"></stop>
            <stop offset="100%" stop-color="#F4B538"></stop>
        </linearGradient>
    </defs>
    <g fill-rule="evenodd" fill="none" stroke-width="1" stroke="none" id="暂无数据">
        <rect height="1024" width="1024" y="0" x="0" id="矩形"></rect>
        <path opacity="0.05" fill="#F1BC01" id="路径-58" d="M47.5366734,659.543369 C39.4800199,624.797677 -12.9642742,398.525452 135.317803,367.413967 C283.599881,336.302481 371.199925,372.538144 436.353333,309.187586 C501.50674,245.837027 517.754879,256.234683 571.269712,260.424647 C624.784545,264.614611 686.807472,218.885777 707.648621,205.149861 C728.489769,191.413945 916.66073,103.037969 964.768685,367.413967 C972.371869,481.713942 978.690342,605.716478 925.458611,652.688114 C872.226881,699.65975 926.431086,741.836454 964.768685,746.523159 C1003.10628,751.209863 946.845617,831.468019 858.298192,866.508311 C799.424099,892.916874 418.600247,968.637617 190.544513,890.801307 C80.4206097,843.64555 55.593327,694.289062 47.5366734,659.543369 Z"></path>
        <path fill="url(#linearGradient-1)" id="云" d="M908,227.375 C908,240.5 895.477273,251 879.659091,251 L792,251 C776.181818,249.95 763,239.975 763,226.325 C763,217.4 768.931818,209.525 777.5,205.325 C776.840909,203.75 776.181818,202.175 776.181818,200.6 C776.181818,191.675 784.75,183.8 795.954545,183.8 C800.568182,183.8 804.522727,185.375 807.818182,187.475 C815.727273,175.4 830.227273,167 847.363636,167 C871.090909,167 890.204545,183.275 890.204545,203.225 L890.204545,205.325 C900.75,209 908,217.4 908,227.375 Z"></path>
        <path fill="url(#linearGradient-2)" id="云" d="M248.5,301 C270.798675,301 289.787336,315.171854 296.950443,335.000022 L328.5,335 C338.164983,335 346,342.835017 346,352.5 L346,388.5 C346,398.164983 338.164983,406 328.5,406 L169.5,406 C159.835017,406 152,398.164983 152,388.5 L151.998854,378.722177 C148.194686,372.55085 146,365.281723 146,357.5 C146,335.132468 164.132468,317 186.5,317 C193.861138,317 200.763593,318.963861 206.71201,322.39623 C216.062983,309.43544 231.29639,301 248.5,301 Z"></path>
        <g transform="translate(149.000000, 304.000000)" id="落叶">
            <path stroke-linecap="round" stroke-width="2" stroke="url(#linearGradient-3)" id="路径-20" d="M751,101.978824 C684.768924,109.801397 633.148623,99.4029017 596.139096,70.7833383 C566.860428,47.1182248 575.711974,0 603.570497,0 C631.42902,0 648.325052,23.2370298 648.325052,59.3395689 C648.325052,95.4421079 630.126844,137.44388 603.570497,156"></path>
            <path transform="translate(573.478529, 149.836425) rotate(-14.000000) translate(-573.478529, -149.836425)" fill="url(#linearGradient-4)" id="路径-18" d="M600.989195,142.868689 C592.046267,131.295455 580.994243,131.298021 567.833121,142.876385 C560.872486,149.406653 556.280235,159.84853 545.967862,159.850923 C578.305107,171.128141 596.645552,165.467396 600.989195,142.868689 Z"></path>
            <path transform="translate(590.462146, 138.429110) rotate(-14.000000) translate(-590.462146, -138.429110)" stroke-linecap="round" stroke-width="2" stroke="url(#linearGradient-5)" id="路径-19" d="M611.192943,128.727041 C607.875564,135.192649 594.055033,141.660695 569.73135,148.131179"></path>
            <path transform="translate(28.036093, 397.595419) rotate(2.000000) translate(-28.036093, -397.595419)" fill="url(#linearGradient-6)" id="路径-18备份" d="M55.5429412,390.632936 C46.5974368,379.056662 35.5460383,379.056281 22.3887457,390.631793 C15.4302441,397.160575 10.8410334,407.601819 0.529245306,407.601464 C32.8676638,418.887941 51.2055624,413.231766 55.5429412,390.632936 Z"></path>
            <path transform="translate(49.052837, 392.414548) rotate(2.000000) translate(-49.052837, -392.414548)" stroke-linecap="round" stroke-width="2" stroke="url(#linearGradient-7)" id="路径-19备份" d="M69.7798758,382.717456 C66.4644066,389.182546 52.6463804,395.647274 28.3257973,402.11164"></path>
            <path stroke-linecap="round" stroke-width="2" stroke="url(#linearGradient-8)" id="路径-22" d="M84,342 C55.9397788,354.666667 32.6064455,361 14,361"></path>
        </g>
        <g transform="translate(425.000000, 552.000000)" id="盒子">
            <polygon points="23 307.106616 147.739347 282 363 294.187409 245.527683 334" fill="url(#linearGradient-9)" id="路径-68"></polygon>
            <polygon points="149 124.383756 149 281.63525 288 290 287.748338 113" fill="url(#linearGradient-10)" id="路径-69"></polygon>
            <polygon points="23 91 23 307 149 280.92773 149 124.500563" fill="url(#linearGradient-11)" id="路径-70"></polygon>
            <polygon points="23 91.7632723 244.324616 70 363 107.919231 148.660183 125" fill="url(#linearGradient-12)" id="路径-71"></polygon>
            <polygon points="247.866983 71 245 336 363 294.541355 363 105.764135" fill="url(#linearGradient-13)" id="路径-72"></polygon>
            <polygon points="24 91 37.9799258 37.1915858 269 -4.97379915e-14 248.342719 71.3373673" fill="url(#linearGradient-14)" id="路径-73"></polygon>
            <polygon points="23.4263457 308 -7.10542736e-14 333.791204 211.800488 372 246 333.791204" fill="url(#linearGradient-15)" id="路径-74"></polygon>
        </g>
        <g transform="translate(363.000000, 752.500000) scale(-1, 1) translate(-363.000000, -752.500000) translate(285.000000, 576.000000)" id="人物">
            <ellipse ry="24.5" rx="78" cy="328.5" cx="78" opacity="0.300000012" fill="#F1BC01" id="椭圆形"></ellipse>
            <path fill-rule="nonzero" fill="#333333" id="路径-52" d="M62.9728774,313.53606 L61.900095,320.455887 C57.5311397,320.590745 52.7799632,321.858307 47.6465655,324.258573 C44.3432421,326.350421 44.1962202,327.298239 44.0898772,329.099413 C44.0189819,330.300196 53.3521816,330.300196 72.0894764,329.099413 L72.0894764,311 L62.9728774,313.53606 Z"></path>
            <path fill-rule="nonzero" fill="#333333" id="路径-52备份-2" d="M103.972877,313.53606 L102.900095,320.455887 C98.5311397,320.590745 93.7799632,321.858307 88.6465655,324.258573 C85.3432421,326.350421 85.1962202,327.298239 85.0898772,329.099413 C85.0189819,330.300196 94.3521816,330.300196 113.089476,329.099413 L113.089476,311 L103.972877,313.53606 Z"></path>
            <path fill-rule="nonzero" fill="url(#linearGradient-16)" id="腿" d="M94.3746342,170 C101.042372,170.026069 106.372522,170.832868 106.372522,170.832868 C106.372522,170.832868 104.508941,194.793153 105.993805,220.922639 C108.431083,263.740334 114.70801,317.307957 114.70801,317.307957 L101.449221,317.307957 C101.449221,317.307957 79.6583471,244.933711 79.8884816,197.710082 C71.9959445,237.490684 73.0080676,318 73.0080676,318 L59.0593412,316.613663 C59.0593412,316.613663 54.1397903,267.863692 52.9249012,228.678469 C51.942491,196.931955 54.6159969,173.172452 54.6159969,173.172452 C61.4409287,172.249919 68.3531337,172.168499 75.1978677,172.930012 C75.2158577,172.932138 75.2338536,172.934275 75.2518552,172.936423 C78.2716518,171.943508 82.0580766,170.921615 85.9181389,170.453445 C88.551002,170.133772 91.2213403,170.009639 93.7253277,170 L94.3746342,170 Z"></path>
            <g transform="translate(88.447428, 39.000000) scale(-1, 1) translate(-88.447428, -39.000000) translate(54.947428, -0.000000)" id="头">
                <rect height="19" width="19" y="59" x="26.9474276" fill="url(#linearGradient-17)" id="矩形"></rect>
                <path fill="url(#linearGradient-18)" id="椭圆形" d="M45.2200065,65.1757651 C63.5116404,61.2436978 64.2910326,48.7962982 62.0633141,30.7232782 C57.3604714,15.4383751 42.1946513,6.08155473 28.1895067,9.82423486 C14.1843621,13.566915 6.64335648,28.9918188 11.3461991,44.2767218 C16.0490418,59.5616249 31.2148619,68.9184453 45.2200065,65.1757651 Z"></path>
                <path fill="#000000" id="路径-66" d="M26.5814088,62 C14.3813625,58.8208667 6.57760101,53.6476462 3.17012447,46.4803385 C-1.94109034,35.7293769 -0.592346569,22.8998416 4.54707157,17.3267631 C4.01535917,16.1810128 2.84660982,14.8571944 1.20021281,13.9405081 C3.20841746,13.0260615 6.62753393,12.6348771 7.46218449,13.2335787 C7.30830646,11.9872966 8.29261675,7.6545372 9.65318886,6.31566613 C9.56066167,7.26031685 9.74740647,8.6453042 10.2134233,10.4706282 C11.8519188,7.02738535 16.9691831,3.77779152 25.565216,0.721846687 C29.4527167,0.231796741 33.5956138,-0.766328103 41.3294942,1.02870563 C43.8936173,1.69112264 47.1875574,1.96605351 56.7746967,7.93183114 C55.5894496,7.95836621 54.8249754,8.05113476 54.4812743,8.21013679 C59.7641869,11.5939478 63.9195713,15.2873633 66.9474276,19.2903833 C65.9503002,19.7949323 65.13685,20.0222883 64.5070769,19.9724511 L66.3422713,20.9000332 L61.1091253,20.9000332 L64.5070769,27.3653435 C59.8627561,22.833178 55.3482696,20.1415246 50.9636175,19.2903833 C48.1214153,18.2411832 47.2893038,17.9097664 47.3857982,20.9000332 C47.4822927,23.8903001 45.0482665,29.7384327 44.1074891,32.6292628 C42.7748553,35.4698182 42.7106412,36.6857461 41.0397617,39.6289743 C39.3966859,43.3683617 37.3948488,47.154831 35.0342504,50.9883823 L33.6986109,46.4803385 C30.4970566,43.9397194 28.1246559,43.9397194 26.5814088,46.4803385 C24.2665382,50.2912671 24.1906854,55.8786836 32.5234432,57.2735769 C29.6416437,57.968985 27.6609656,59.5444593 26.5814088,62 Z"></path>
            </g>
            <g transform="translate(12.842196, 69.000000)" id="上半身">
                <path fill-rule="nonzero" fill="url(#linearGradient-19)" id="胳膊" d="M61.3756297,1 C61.3756297,1 52.6756582,4.84741093 48.4105962,11.9527945 C41.38268,23.6653592 37.3516303,43.6789932 37.3516303,43.6789932 C37.3516303,43.6789932 37.0270326,49.7676144 32.3958548,58.4086004 C27.3570426,67.8082363 25.5340117,68.9841246 25.5340117,68.9841246 C25.5340117,68.9841246 18.3362478,73.8512862 16.3811133,74.2718865 C13.9956981,74.7858708 8.37562972,77.2934115 8.37562972,77.2934115 L12.1877647,89 C12.1877647,89 27.8741342,87.552551 38.8802587,82.5793058 C47.1008825,78.8622587 50.3166637,68.9826304 50.3166637,68.9826304 L61.3756297,1 Z"></path>
                <path fill-rule="nonzero" fill="url(#linearGradient-20)" id="衣服" d="M65.2436428,9.20249604 L81.8182155,7.10542736e-15 C81.8182155,7.10542736e-15 83.3538677,1.42762895 83.9776857,2.10838134 C85.2047569,2.98689097 86.2933045,3.84413863 86.2933045,3.84413863 C86.2933045,3.84413863 90.4818503,6.26083453 92.7998347,10.1982591 C95.5778806,14.9171634 95.4480955,30.9985504 95.4480955,30.9985504 C95.4480955,30.9985504 94.9765111,43.0204116 95.8264178,55.5810527 C97.2943373,77.2752116 97.9583537,102.967811 97.9583537,102.967811 C97.9583537,102.967811 80.7365062,103.899969 67.7499157,103.992355 C54.0778488,104.08923 40.9583537,103.233472 40.9583537,103.233472 L49.2814585,26.4604206 C49.2814585,26.4604206 50.5400379,13.3506005 55.3383714,5.65975537 C57.4472409,2.27401809 62.8150274,0.86154416 62.8150274,0.86154416 L65.2436428,9.20249604 Z"></path>
                <path fill-rule="nonzero" fill="url(#linearGradient-21)" id="胳膊-2" d="M87.3734752,4 C87.3734752,4 95.0723472,8.92744477 97.6890559,13.4827521 C101.636807,20.3594168 103.417833,51.4137607 103.417833,51.4137607 C103.417833,51.4137607 104.090917,56.6840823 101.508241,60.896513 C98.7478394,65.3981755 73.6206284,80.6209225 73.6206284,80.6209225 L52.9932488,92 L46.4968532,77.5860517 L81.6409165,51.7930259 C81.6409165,51.7930259 83.255562,50.5216813 83.5542903,48.7585302 C83.8303305,47.1116719 80.4951611,27.8963254 80.4951611,27.8963254 C80.4951611,27.8963254 79.1452116,20.2198653 81.2589981,14.6205474 C83.142121,9.63458099 87.3734752,4 87.3734752,4 Z"></path>
                <path fill="#483029" id="iPad" d="M3.00357039,59 L42.0737973,59 C42.5769641,59.0002925 43.0594039,59.1963264 43.4149853,59.5449765 C43.7705667,59.8936266 43.9701623,60.3663332 43.9698635,60.8591064 L45.1075039,86.140893 C45.1075039,86.6336963 44.908338,87.1064593 44.552735,87.4551311 C44.197132,87.8038021 43.7146344,88 43.2114371,88 L5.65806303,88 C5.15486566,88 4.67236804,87.8038021 4.31676505,87.4551311 C3.96116207,87.1064593 3.7615984,86.6336963 3.76199686,86.140893 L1.10750388,60.8591064 C1.10750388,60.3663332 1.30680108,59.8936266 1.66238248,59.5449765 C2.01796388,59.1963264 2.50040361,59.0002925 3.00357039,59 L3.00357039,59 Z"></path>
                <path fill="#FEE0BC" id="手" d="M46.7273772,78 L35.7297573,78.356779 C35.7297573,78.356779 34.7358588,78.3107178 34.7015864,80.1426258 C34.716777,80.6029364 34.9811867,81.0161176 35.3870337,81.2137434 L38.1250145,82.2852515 C36.7803545,82.6552256 35.4046278,82.8942685 34.0161393,82.9991997 C32.1922676,83.104632 30.3640492,83.104632 28.5401776,82.9991997 C28.5401776,82.9991997 27.348261,82.8738977 27.5120068,84.7846561 C27.6909846,86.7992469 28.197454,89.7842463 28.197454,89.7842463 C28.197454,89.7842463 28.4297445,91.8226487 30.9354349,92.2824802 C34.1570367,92.8754203 41.8873582,92.9964284 41.8873582,92.9964284 C43.8328168,93.022768 45.7775538,92.9033939 47.7060435,92.6392587 C49.2901882,92.3855323 52.4965579,91.2109722 52.4965579,91.2109722 C52.4965579,91.2109722 51.1142393,87.6466948 49.7814253,84.2209922 C48.9149295,82.0727449 47.8941104,79.9933713 46.7273772,78 Z M3.64394241,78.5513339 L12.9954359,78.0019384 C12.9954359,78.0019384 13.8324288,77.8811838 13.9884138,79.545871 C14.0187832,79.9526493 13.8275305,80.344684 13.486218,80.5752845 L11.2377508,81.768204 C12.4011339,81.9978173 13.5857562,82.1064165 14.7721435,82.0922161 C16.3270279,82.0429215 17.8772423,81.8975054 19.4136496,81.6568249 C19.4136496,81.6568249 20.4180411,81.447567 20.4105177,83.2003825 C20.4028231,85.0484516 20.1783568,87.8059298 20.1783568,87.8059298 C20.07537,89.0015886 19.2158862,90.0019776 18.0364159,90.2990229 C15.346625,91.0955529 8.7990578,91.8200799 8.7990578,91.8200799 C7.15314586,91.998334 5.49524504,92.0442377 3.84177709,91.9573351 C3.2368595,91.9100834 2.42649818,92.0402127 1.8558212,91.6573236 C1.36464991,91.2640686 0.981383443,90.7556654 0.741098831,90.1786434 C0.287865652,87.8891382 0.300797894,85.53367 0.779143963,83.2491344 C1.00322085,82.1855878 1.30715024,81.1399209 1.68842262,80.1207675 C1.95584356,79.2543246 2.72897821,78.6338331 3.64394241,78.5513339 L3.64394241,78.5513339 Z"></path>
            </g>
        </g>
        <g transform="translate(363.000000, 752.500000) scale(-1, 1) translate(-363.000000, -752.500000) translate(285.000000, 576.000000)" id="人物">
            <ellipse ry="24.5" rx="78" cy="328.5" cx="78" opacity="0.300000012" fill="#F1BC01" id="椭圆形"></ellipse>
            <path fill-rule="nonzero" fill="#333333" id="路径-52" d="M62.9728774,313.53606 L61.900095,320.455887 C57.5311397,320.590745 52.7799632,321.858307 47.6465655,324.258573 C44.3432421,326.350421 44.1962202,327.298239 44.0898772,329.099413 C44.0189819,330.300196 53.3521816,330.300196 72.0894764,329.099413 L72.0894764,311 L62.9728774,313.53606 Z"></path>
            <path fill-rule="nonzero" fill="#333333" id="路径-52备份-2" d="M103.972877,313.53606 L102.900095,320.455887 C98.5311397,320.590745 93.7799632,321.858307 88.6465655,324.258573 C85.3432421,326.350421 85.1962202,327.298239 85.0898772,329.099413 C85.0189819,330.300196 94.3521816,330.300196 113.089476,329.099413 L113.089476,311 L103.972877,313.53606 Z"></path>
            <path fill-rule="nonzero" fill="url(#linearGradient-16)" id="腿" d="M94.3746342,170 C101.042372,170.026069 106.372522,170.832868 106.372522,170.832868 C106.372522,170.832868 104.508941,194.793153 105.993805,220.922639 C108.431083,263.740334 114.70801,317.307957 114.70801,317.307957 L101.449221,317.307957 C101.449221,317.307957 79.6583471,244.933711 79.8884816,197.710082 C71.9959445,237.490684 73.0080676,318 73.0080676,318 L59.0593412,316.613663 C59.0593412,316.613663 54.1397903,267.863692 52.9249012,228.678469 C51.942491,196.931955 54.6159969,173.172452 54.6159969,173.172452 C61.4409287,172.249919 68.3531337,172.168499 75.1978677,172.930012 C75.2158577,172.932138 75.2338536,172.934275 75.2518552,172.936423 C78.2716518,171.943508 82.0580766,170.921615 85.9181389,170.453445 C88.551002,170.133772 91.2213403,170.009639 93.7253277,170 L94.3746342,170 Z"></path>
            <g transform="translate(88.447428, 39.000000) scale(-1, 1) translate(-88.447428, -39.000000) translate(54.947428, 0.000000)" id="头">
                <rect height="19" width="19" y="59" x="26.9474276" fill="url(#linearGradient-17)" id="矩形"></rect>
                <path fill="url(#linearGradient-18)" id="椭圆形" d="M45.2200065,65.1757651 C63.5116404,61.2436978 64.2910326,48.7962982 62.0633141,30.7232782 C57.3604714,15.4383751 42.1946513,6.08155473 28.1895067,9.82423486 C14.1843621,13.566915 6.64335648,28.9918188 11.3461991,44.2767218 C16.0490418,59.5616249 31.2148619,68.9184453 45.2200065,65.1757651 Z"></path>
                <path fill="#000000" id="路径-66" d="M26.5814088,62 C14.3813625,58.8208667 6.57760101,53.6476462 3.17012447,46.4803385 C-1.94109034,35.7293769 -0.592346569,22.8998416 4.54707157,17.3267631 C4.01535917,16.1810128 2.84660982,14.8571944 1.20021281,13.9405081 C3.20841746,13.0260615 6.62753393,12.6348771 7.46218449,13.2335787 C7.30830646,11.9872966 8.29261675,7.6545372 9.65318886,6.31566613 C9.56066167,7.26031685 9.74740647,8.6453042 10.2134233,10.4706282 C11.8519188,7.02738535 16.9691831,3.77779152 25.565216,0.721846687 C29.4527167,0.231796741 33.5956138,-0.766328103 41.3294942,1.02870563 C43.8936173,1.69112264 47.1875574,1.96605351 56.7746967,7.93183114 C55.5894496,7.95836621 54.8249754,8.05113476 54.4812743,8.21013679 C59.7641869,11.5939478 63.9195713,15.2873633 66.9474276,19.2903833 C65.9503002,19.7949323 65.13685,20.0222883 64.5070769,19.9724511 L66.3422713,20.9000332 L61.1091253,20.9000332 L64.5070769,27.3653435 C59.8627561,22.833178 55.3482696,20.1415246 50.9636175,19.2903833 C48.1214153,18.2411832 47.2893038,17.9097664 47.3857982,20.9000332 C47.4822927,23.8903001 45.0482665,29.7384327 44.1074891,32.6292628 C42.7748553,35.4698182 42.7106412,36.6857461 41.0397617,39.6289743 C39.3966859,43.3683617 37.3948488,47.154831 35.0342504,50.9883823 L33.6986109,46.4803385 C30.4970566,43.9397194 28.1246559,43.9397194 26.5814088,46.4803385 C24.2665382,50.2912671 24.1906854,55.8786836 32.5234432,57.2735769 C29.6416437,57.968985 27.6609656,59.5444593 26.5814088,62 Z"></path>
            </g>
            <g transform="translate(12.842196, 69.000000)" id="上半身">
                <path fill-rule="nonzero" fill="url(#linearGradient-19)" id="胳膊" d="M61.3756297,1 C61.3756297,1 52.6756582,4.84741093 48.4105962,11.9527945 C41.38268,23.6653592 37.3516303,43.6789932 37.3516303,43.6789932 C37.3516303,43.6789932 37.0270326,49.7676144 32.3958548,58.4086004 C27.3570426,67.8082363 25.5340117,68.9841246 25.5340117,68.9841246 C25.5340117,68.9841246 18.3362478,73.8512862 16.3811133,74.2718865 C13.9956981,74.7858708 8.37562972,77.2934115 8.37562972,77.2934115 L12.1877647,89 C12.1877647,89 27.8741342,87.552551 38.8802587,82.5793058 C47.1008825,78.8622587 50.3166637,68.9826304 50.3166637,68.9826304 L61.3756297,1 Z"></path>
                <path fill-rule="nonzero" fill="url(#linearGradient-20)" id="衣服" d="M65.2436428,9.20249604 L81.8182155,7.10542736e-15 C81.8182155,7.10542736e-15 83.3538677,1.42762895 83.9776857,2.10838134 C85.2047569,2.98689097 86.2933045,3.84413863 86.2933045,3.84413863 C86.2933045,3.84413863 90.4818503,6.26083453 92.7998347,10.1982591 C95.5778806,14.9171634 95.4480955,30.9985504 95.4480955,30.9985504 C95.4480955,30.9985504 94.9765111,43.0204116 95.8264178,55.5810527 C97.2943373,77.2752116 97.9583537,102.967811 97.9583537,102.967811 C97.9583537,102.967811 80.7365062,103.899969 67.7499157,103.992355 C54.0778488,104.08923 40.9583537,103.233472 40.9583537,103.233472 L49.2814585,26.4604206 C49.2814585,26.4604206 50.5400379,13.3506005 55.3383714,5.65975537 C57.4472409,2.27401809 62.8150274,0.86154416 62.8150274,0.86154416 L65.2436428,9.20249604 Z"></path>
                <path fill-rule="nonzero" fill="url(#linearGradient-21)" id="胳膊-2" d="M87.3734752,4 C87.3734752,4 95.0723472,8.92744477 97.6890559,13.4827521 C101.636807,20.3594168 103.417833,51.4137607 103.417833,51.4137607 C103.417833,51.4137607 104.090917,56.6840823 101.508241,60.896513 C98.7478394,65.3981755 73.6206284,80.6209225 73.6206284,80.6209225 L52.9932488,92 L46.4968532,77.5860517 L81.6409165,51.7930259 C81.6409165,51.7930259 83.255562,50.5216813 83.5542903,48.7585302 C83.8303305,47.1116719 80.4951611,27.8963254 80.4951611,27.8963254 C80.4951611,27.8963254 79.1452116,20.2198653 81.2589981,14.6205474 C83.142121,9.63458099 87.3734752,4 87.3734752,4 Z"></path>
                <path fill="#483029" id="iPad" d="M3.00357039,59 L42.0737973,59 C42.5769641,59.0002925 43.0594039,59.1963264 43.4149853,59.5449765 C43.7705667,59.8936266 43.9701623,60.3663332 43.9698635,60.8591064 L45.1075039,86.140893 C45.1075039,86.6336963 44.908338,87.1064593 44.552735,87.4551311 C44.197132,87.8038021 43.7146344,88 43.2114371,88 L5.65806303,88 C5.15486566,88 4.67236804,87.8038021 4.31676505,87.4551311 C3.96116207,87.1064593 3.7615984,86.6336963 3.76199686,86.140893 L1.10750388,60.8591064 C1.10750388,60.3663332 1.30680108,59.8936266 1.66238248,59.5449765 C2.01796388,59.1963264 2.50040361,59.0002925 3.00357039,59 L3.00357039,59 Z"></path>
                <path fill="#FEE0BC" id="手" d="M46.7273772,78 L35.7297573,78.356779 C35.7297573,78.356779 34.7358588,78.3107178 34.7015864,80.1426258 C34.716777,80.6029364 34.9811867,81.0161176 35.3870337,81.2137434 L38.1250145,82.2852515 C36.7803545,82.6552256 35.4046278,82.8942685 34.0161393,82.9991997 C32.1922676,83.104632 30.3640492,83.104632 28.5401776,82.9991997 C28.5401776,82.9991997 27.348261,82.8738977 27.5120068,84.7846561 C27.6909846,86.7992469 28.197454,89.7842463 28.197454,89.7842463 C28.197454,89.7842463 28.4297445,91.8226487 30.9354349,92.2824802 C34.1570367,92.8754203 41.8873582,92.9964284 41.8873582,92.9964284 C43.8328168,93.022768 45.7775538,92.9033939 47.7060435,92.6392587 C49.2901882,92.3855323 52.4965579,91.2109722 52.4965579,91.2109722 C52.4965579,91.2109722 51.1142393,87.6466948 49.7814253,84.2209922 C48.9149295,82.0727449 47.8941104,79.9933713 46.7273772,78 Z M3.64394241,78.5513339 L12.9954359,78.0019384 C12.9954359,78.0019384 13.8324288,77.8811838 13.9884138,79.545871 C14.0187832,79.9526493 13.8275305,80.344684 13.486218,80.5752845 L11.2377508,81.768204 C12.4011339,81.9978173 13.5857562,82.1064165 14.7721435,82.0922161 C16.3270279,82.0429215 17.8772423,81.8975054 19.4136496,81.6568249 C19.4136496,81.6568249 20.4180411,81.447567 20.4105177,83.2003825 C20.4028231,85.0484516 20.1783568,87.8059298 20.1783568,87.8059298 C20.07537,89.0015886 19.2158862,90.0019776 18.0364159,90.2990229 C15.346625,91.0955529 8.7990578,91.8200799 8.7990578,91.8200799 C7.15314586,91.998334 5.49524504,92.0442377 3.84177709,91.9573351 C3.2368595,91.9100834 2.42649818,92.0402127 1.8558212,91.6573236 C1.36464991,91.2640686 0.981383443,90.7556654 0.741098831,90.1786434 C0.287865652,87.8891382 0.300797894,85.53367 0.779143963,83.2491344 C1.00322085,82.1855878 1.30715024,81.1399209 1.68842262,80.1207675 C1.95584356,79.2543246 2.72897821,78.6338331 3.64394241,78.5513339 L3.64394241,78.5513339 Z"></path>
            </g>
        </g>
        <g transform="translate(850.000000, 802.000000)" id="草">
            <ellipse ry="3.5" rx="11.5" cy="71.5" cx="24.5" fill="#825852" id="椭圆形"></ellipse>
            <path fill="url(#linearGradient-22)" id="路径-42" d="M12,69.7876893 C13.5688691,43.1042697 20.1413639,27.660054 31.7174845,23.4550421 C36.2750138,22.8353127 41.3544589,21.9035049 37.8127367,27.919161 C34.2710144,33.9348172 24.7869318,31.5937272 15.3031637,69.7717842 C14.4453796,71.4040863 13.3443251,71.409388 12,69.7876893 Z"></path>
            <path fill="url(#linearGradient-23)" id="路径-41" d="M11.7437129,69.1173818 C8.64524957,44.4150825 6.10926178,28.8802906 4.13574948,22.513006 C1.17548104,12.962079 -5.12748272,-5.41896156 7.99052727,1.53505301 C21.1085373,8.48906757 22.6594881,44.1597959 16.595795,65.8683449 C14.7110719,71.3615859 13.0937112,72.4445982 11.7437129,69.1173818 Z"></path>
        </g>
        <g transform="translate(121.000000, 800.000000)" id="石头">
            <path fill="url(#linearGradient-24)" id="形状结合" d="M66,-3.55271368e-14 C92.1798905,8.25303371 113.268945,19.3719014 126.729228,45.3685586 C146.265948,22.5642105 168.458649,23.6773085 189,24.195448 C157.1768,29.8674676 143.174302,52.1356516 146.992508,91 C144.027812,90.7979659 140.532184,90.6598856 136.505624,90.5857593 C128.479989,91.0430744 119.330958,91.1216387 109.058073,90.8218373 C107.096152,90.8741137 105.076748,90.9336032 103,91 C103.044281,90.8693091 103.088596,90.7388709 103.132943,90.6086849 C101.341127,90.5380297 99.5179929,90.453321 97.6633282,90.3579972 L97.7390688,89.9926249 C91.4668224,90.0254804 84.5672439,89.9485599 77.0403334,89.7618634 C82.3655989,49.3393212 68.6854878,27.562795 36,24.432285 C64.8789689,21.6905991 87.3852635,32.1361438 99.664989,51.6204728 C96.5687182,29.8874397 85.3471389,12.6804835 66,-3.55271368e-14 Z"></path>
            <ellipse ry="21" rx="70" cy="113" cx="77" fill="#825852" id="椭圆形"></ellipse>
            <path fill="url(#linearGradient-25)" id="椭圆形" d="M57.1601213,115.998188 C87.8119249,115.998188 111,116.743231 111,88.0157339 C111,59.2882373 86.1518036,36 55.5,36 C24.8481964,36 0,59.2882373 0,88.0157339 C0,116.743231 26.5083177,115.998188 57.1601213,115.998188 Z"></path>
            <path fill="url(#linearGradient-26)" id="椭圆形备份-6" d="M117.531967,115.99889 C136.585791,115.99889 151,116.455229 151,98.859637 C151,81.2640454 135.553824,67 116.5,67 C97.4461761,67 82,81.2640454 82,98.859637 C82,116.455229 98.4781434,115.99889 117.531967,115.99889 Z"></path>
        </g>
        <g transform="translate(288.000000, 442.000000)" id="乌鸦">
            <path fill="#825852" id="形状结合" d="M92.9833198,1.0658141e-14 C101.542342,0.445895773 104.459031,1.99985671 99.7719756,6.04654226 C99.2972243,6.46449789 98.7806065,6.91519127 98.2465556,7.38774815 L97.9242286,7.67381891 C97.4921913,8.05851276 97.0521242,8.45580734 96.6165375,8.86013506 L96.290883,9.16461256 C92.7222244,12.5264571 89.6713717,16.2722574 94.1628604,17.2757123 C94.2625004,17.3467706 94.3748586,17.4181447 94.4947098,17.4909311 L94.6168651,17.5642289 L94.7428546,17.6387119 C94.7853611,17.6637642 94.8283131,17.6890546 94.8715171,17.7146238 L95.0669828,17.831704 C95.2258704,17.9284317 95.3842476,18.0296862 95.5326997,18.1374433 L95.6420308,18.2195112 C95.6598934,18.2334026 95.6775642,18.2474034 95.6950248,18.2615174 L95.7971181,18.3475903 C96.9718864,19.3829212 96.9014365,21.0276933 89.0045409,24.6630554 C91.2038291,25.1342864 93.3932476,25.7068613 95.5716344,26.3799721 C100.768244,29.2915299 109.010556,33.9273239 114,35.8216264 C110.800797,37.6881659 107.857784,40.0707497 105.17096,42.9693778 L110.428642,42.9693778 C76.3855751,60.3435407 52.4035267,60.3435407 38.4824967,42.9693778 C38.3903314,42.5533283 38.3113701,42.1125216 38.2456126,41.6469576 C35.9992627,42.5206704 33.5556081,43 31,43 C22.7859999,43 15.7285336,38.04829 12.6498389,30.9671078 C8.96049741,31.1705933 3.25195047,30.4400091 -7.10542736e-15,28.4380167 C0.585940535,26.9756388 1.5574457,25.8296332 2.9145155,25 L-7.10542736e-15,22.9612148 C3.03286776,19.8301813 6.82385546,18.5552774 11.3729631,19.1365031 C13.1723726,9.94001608 21.2757225,3 31,3 C42.045695,3 51,11.954305 51,23 C51,24.1125888 50.909152,25.2039589 50.7344696,26.2670968 C53.6950437,25.4225256 56.6371756,24.7432138 59.5614242,24.2268782 C65.8100869,10.2865048 76.9508633,2.21087379 92.9833198,1.0658141e-14 Z"></path>
            <ellipse ry="7" rx="7.5" cy="21" cx="27.5" fill="#FFFFFF" id="椭圆形"></ellipse>
            <circle r="3.5" cy="21.5" cx="27.5" fill="#825852" id="椭圆形"></circle>
            <circle r="7.5" cy="34.5" cx="143.5" fill="#825852" id="椭圆形"></circle>
            <circle r="7.5" cy="34.5" cx="180.5" fill="#825852" id="椭圆形备份"></circle>
            <circle r="7.5" cy="34.5" cx="216.5" fill="#825852" id="椭圆形备份-2"></circle>
        </g>
    </g>
</svg>