<?xml version="1.0" standalone="no"?><!DOCTYPE svg PUBLIC "-//W3C//DTD SVG 1.1//EN" "http://www.w3.org/Graphics/SVG/1.1/DTD/svg11.dtd"><svg t="1727448976503" class="icon" viewBox="0 0 1024 1024" version="1.1" xmlns="http://www.w3.org/2000/svg" p-id="4233" xmlns:xlink="http://www.w3.org/1999/xlink" width="200" height="200"><path d="M466.624 890.432a423.296 423.296 0 0 1-423.936-423.04C42.688 233.728 231.936 42.624 466.56 42.624a423.68 423.68 0 0 1 423.936 424.64 437.952 437.952 0 0 1-56.32 213.12 47.872 47.872 0 0 1-64.128 17.28 48 48 0 0 1-17.216-64.256c29.76-50.176 43.84-106.56 43.84-166.144-1.6-183.36-148.608-330.624-330.112-330.624a330.432 330.432 0 0 0-330.112 330.624 329.408 329.408 0 0 0 330.112 330.688c57.92 0 115.776-15.68 165.824-43.904a47.872 47.872 0 0 1 64.128 17.28 48 48 0 0 1-17.152 64.192 443.584 443.584 0 0 1-212.8 54.848z" fill="#ffffff" p-id="4234"></path><path d="M466.624 890.432a423.296 423.296 0 0 1-423.936-423.04c0-75.264 20.288-148.928 56.32-213.12a47.872 47.872 0 0 1 64.128-17.28 48 48 0 0 1 17.216 64.256 342.08 342.08 0 0 0-43.84 166.08c0 181.76 147.072 330.688 330.112 330.688a329.408 329.408 0 0 0 330.112-330.688A330.432 330.432 0 0 0 466.56 136.704c-57.856 0-115.776 15.68-165.824 43.84a47.872 47.872 0 0 1-64.128-17.216 48 48 0 0 1 17.216-64.256A436.032 436.032 0 0 1 466.56 42.688c233.088 0 422.4 189.568 422.4 424.64a422.016 422.016 0 0 1-422.4 423.104z" fill="#ffffff" p-id="4235"></path><path d="M934.4 981.312a44.992 44.992 0 0 1-32.832-14.08l-198.72-199.04c-18.752-18.816-18.752-48.576 0-65.792 18.752-18.816 48.512-18.816 65.728 0l198.656 199.04c18.816 18.752 18.816 48.576 0 65.792a47.68 47.68 0 0 1-32.832 14.08z" fill="#ffffff" p-id="4236"></path></svg>