<svg xmlns="http://www.w3.org/2000/svg" xmlns:xlink="http://www.w3.org/1999/xlink" width="24" height="24.026" viewBox="0 0 24 24.026"><defs><style>.a{fill:none;}.a,.c{stroke:#f5f5f5;stroke-width:0.8px;}.b{clip-path:url(#a);}.c{fill:#fff;}</style><clipPath id="a"><rect class="a" width="24" height="24.026"/></clipPath></defs><g class="b"><path class="c" d="M278.489,390.844a11.956,11.956,0,1,1-4.668.943,11.856,11.856,0,0,1,4.668-.943Zm0,.6a11.361,11.361,0,1,0,4.433.9,11.271,11.271,0,0,0-4.433-.9Zm-3.223.966h0a.3.3,0,0,0,.015-.095V392.3a.3.3,0,0,0-.3-.284h-.006a.3.3,0,0,0-.278.205,33.422,33.422,0,0,0-1.334,5.49,33.415,33.415,0,0,0-5.49,1.334h0a.3.3,0,0,0-.2.285h0a.3.3,0,0,0,.3.3h.006a.3.3,0,0,0,.089-.015,32.865,32.865,0,0,1,5.211-1.282,33.854,33.854,0,0,0,0,9.009,32.811,32.811,0,0,1-5.21-1.281h0a.3.3,0,0,0-.095-.015h-.006a.3.3,0,0,0-.294.3v.006a.3.3,0,0,0,.2.278,33.539,33.539,0,0,0,5.492,1.334,33.422,33.422,0,0,0,1.333,5.489h0a.3.3,0,0,0,.285.2h0a.3.3,0,0,0,.3-.3v-.006a.294.294,0,0,0-.016-.088,32.929,32.929,0,0,1-1.282-5.211,33.852,33.852,0,0,0,9.009,0,32.871,32.871,0,0,1-1.281,5.21h0a.285.285,0,0,0-.016.095v.006a.3.3,0,0,0,.3.293h.016a.3.3,0,0,0,.268-.2v0a33.414,33.414,0,0,0,1.333-5.489,33.42,33.42,0,0,0,5.489-1.334h0a.3.3,0,0,0,.205-.284v-.006a.3.3,0,0,0-.3-.294H289a.3.3,0,0,0-.089.015,32.836,32.836,0,0,1-5.211,1.282,33.847,33.847,0,0,0,0-9.009,32.942,32.942,0,0,1,5.21,1.281h0a.3.3,0,0,0,.095.015h.006a.3.3,0,0,0,.294-.3v-.017a.3.3,0,0,0-.2-.268h0a33.486,33.486,0,0,0-5.489-1.333,33.469,33.469,0,0,0-1.334-5.49h0v0a.3.3,0,0,0-.149-.172l-.01,0a.3.3,0,0,0-.219-.012l-.015.006a.3.3,0,0,0-.174.374,32.967,32.967,0,0,1,1.281,5.211,33.856,33.856,0,0,0-9.009,0,32.98,32.98,0,0,1,1.281-5.21Zm-1.375,5.827a33.244,33.244,0,0,1,9.2,0,33.269,33.269,0,0,1,0,9.2,33.232,33.232,0,0,1-9.195,0,33.224,33.224,0,0,1,0-9.2Zm0,0" transform="translate(-266.501 -390.828)"/></g></svg>